<svg width="20" height="26" viewBox="0 0 20 26" fill="none" xmlns="http://www.w3.org/2000/svg">
<path d="M15 18.5713C15.1893 18.5713 15.371 18.6465 15.5049 18.7803C15.6388 18.9142 15.7139 19.0967 15.7139 19.2861C15.7138 19.4754 15.6387 19.6572 15.5049 19.791C15.371 19.9248 15.1893 20 15 20H5C4.81067 20 4.62905 19.9248 4.49512 19.791C4.36126 19.6572 4.28624 19.4754 4.28613 19.2861C4.28613 19.0967 4.36116 18.9142 4.49512 18.7803C4.62904 18.6465 4.81071 18.5713 5 18.5713H15Z" fill="black"/>
<path d="M15 15C15.1893 15 15.371 15.0752 15.5049 15.209C15.6387 15.3428 15.7138 15.5246 15.7139 15.7139C15.7139 15.9033 15.6388 16.0858 15.5049 16.2197C15.371 16.3535 15.1893 16.4287 15 16.4287H5C4.81071 16.4287 4.62904 16.3535 4.49512 16.2197C4.36116 16.0858 4.28613 15.9033 4.28613 15.7139C4.28624 15.5246 4.36126 15.3428 4.49512 15.209C4.62905 15.0752 4.81067 15 5 15H15Z" fill="black"/>
<path d="M7.33301 7.8418C9.01576 7.8419 10.3799 9.01484 10.3799 10.6348V11.3975C10.3794 11.5315 10.3261 11.66 10.2314 11.7549C10.1365 11.8498 10.0073 11.9039 9.87305 11.9043H4.79395C4.65952 11.9042 4.5308 11.8507 4.43555 11.7559C4.34029 11.6609 4.28659 11.532 4.28613 11.3975V10.6348C4.28613 9.01334 5.65015 7.8418 7.33301 7.8418Z" fill="black"/>
<path d="M7.33398 4.28613C7.53789 4.27989 7.74141 4.31401 7.93164 4.3877C8.12193 4.46145 8.29588 4.57276 8.44238 4.71484C8.58885 4.85689 8.70561 5.02696 8.78516 5.21484C8.8647 5.4028 8.90527 5.60547 8.90527 5.80957C8.90524 6.0135 8.86461 6.2155 8.78516 6.40332C8.70565 6.59119 8.5888 6.76127 8.44238 6.90332C8.29587 7.04541 8.12195 7.15671 7.93164 7.23047C7.74136 7.3042 7.53795 7.33925 7.33398 7.33301C6.9381 7.3208 6.56286 7.15444 6.28711 6.87012C6.01137 6.58578 5.85651 6.20565 5.85645 5.80957C5.85645 5.41338 6.01128 5.03245 6.28711 4.74805C6.56284 4.46385 6.9382 4.29834 7.33398 4.28613Z" fill="black"/>
<path fill-rule="evenodd" clip-rule="evenodd" d="M11.6924 2.00466e-07C11.9894 -0.000127991 12.2837 0.0612255 12.5557 0.180664C12.8276 0.300156 13.0716 0.475481 13.2725 0.694336L19.4355 7.41113C19.7983 7.80633 19.9999 8.32388 20 8.86035V23.5713C20 24.1396 19.7739 24.6851 19.3721 25.0869C18.9703 25.4885 18.4255 25.7138 17.8574 25.7139H2.14258C1.57449 25.7138 1.0297 25.4885 0.62793 25.0869C0.226066 24.6851 0 24.1396 0 23.5713V2.14258C7.38913e-05 1.57436 0.226132 1.02973 0.62793 0.62793C1.02973 0.226132 1.57436 7.4094e-05 2.14258 2.00466e-07H11.6924ZM2.14258 1.42871C1.95324 1.42879 1.77158 1.50381 1.6377 1.6377C1.50381 1.77158 1.42878 1.95324 1.42871 2.14258V23.5713C1.42871 23.7606 1.50387 23.9422 1.6377 24.0762C1.77158 24.2101 1.95324 24.2861 2.14258 24.2861H17.8574C18.0468 24.2861 18.2284 24.2101 18.3623 24.0762C18.4961 23.9422 18.5713 23.7606 18.5713 23.5713V8.86035C18.5713 8.83514 18.5671 8.81001 18.5645 8.78516H12.1426C11.8665 8.78502 11.6426 8.56122 11.6426 8.28516V1.57129C11.6426 1.52149 11.6525 1.4741 11.666 1.42871H2.14258ZM12.6426 7.78516H17.8398L12.6426 2.12012V7.78516Z" fill="black"/>
</svg>
