<svg width="33" height="42" viewBox="0 0 33 42" fill="none" xmlns="http://www.w3.org/2000/svg">
<path d="M24.5 30.333C24.8094 30.333 25.1064 30.456 25.3252 30.6748C25.544 30.8936 25.667 31.1906 25.667 31.5C25.667 31.8094 25.544 32.1064 25.3252 32.3252C25.1064 32.544 24.8094 32.667 24.5 32.667H8.16699C7.85765 32.667 7.56057 32.5439 7.3418 32.3252C7.123 32.1064 7 31.8094 7 31.5C7 31.1906 7.123 30.8936 7.3418 30.6748C7.56057 30.4561 7.85765 30.333 8.16699 30.333H24.5Z" fill="white"/>
<path d="M24.5 24.5C24.8094 24.5 25.1064 24.623 25.3252 24.8418C25.5439 25.0606 25.667 25.3577 25.667 25.667C25.6669 25.9761 25.5437 26.2725 25.3252 26.4912C25.1064 26.71 24.8094 26.833 24.5 26.833H8.16699C7.85757 26.833 7.56059 26.71 7.3418 26.4912C7.12318 26.2725 7.00009 25.9762 7 25.667C7 25.3576 7.123 25.0606 7.3418 24.8418C7.56059 24.623 7.85757 24.5 8.16699 24.5H24.5Z" fill="white"/>
<path d="M11.9766 12.8076C14.7251 12.8076 16.954 14.7233 16.9541 17.3691V18.6152C16.9535 18.8346 16.866 19.045 16.7109 19.2002C16.5558 19.3553 16.3454 19.4427 16.126 19.4434H7.83105C7.61115 19.4434 7.39985 19.3564 7.24414 19.2012C7.08844 19.0459 7.00062 18.8351 7 18.6152V17.3691C7.00013 14.7211 9.22818 12.8078 11.9766 12.8076Z" fill="white"/>
<path d="M11.9795 7C12.3126 6.98981 12.6443 7.04659 12.9551 7.16699C13.2659 7.28746 13.5498 7.46908 13.7891 7.70117C14.0284 7.93325 14.2187 8.21156 14.3486 8.51855C14.4784 8.82537 14.5449 9.15515 14.5449 9.48828C14.5449 9.82164 14.4786 10.152 14.3486 10.459C14.2188 10.7659 14.0282 11.0434 13.7891 11.2754C13.5498 11.5075 13.2659 11.6891 12.9551 11.8096C12.6443 11.93 12.3126 11.9868 11.9795 11.9766C11.3327 11.9568 10.7191 11.6862 10.2686 11.2217C9.81804 10.7572 9.56641 10.1354 9.56641 9.48828C9.56646 8.84126 9.81809 8.21935 10.2686 7.75488C10.719 7.29051 11.3328 7.0198 11.9795 7Z" fill="white"/>
<path fill-rule="evenodd" clip-rule="evenodd" d="M19.0986 2.09239e-07C19.5838 -0.000167696 20.0636 0.100718 20.5078 0.295899C20.952 0.491072 21.3507 0.776321 21.6787 1.13379L31.7451 12.1055C32.3376 12.7509 32.6668 13.5955 32.667 14.4717V38.5C32.667 39.4282 32.2979 40.3182 31.6416 40.9746C30.9853 41.6309 30.0951 41.9999 29.167 42H3.5C2.57174 42 1.68177 41.631 1.02539 40.9746C0.369013 40.3182 0 39.4283 0 38.5V3.5C6.31414e-08 2.57174 0.369013 1.68177 1.02539 1.02539C1.68177 0.369014 2.57174 2.09239e-07 3.5 2.09239e-07H19.0986ZM3.5 2.33301C3.19058 2.33301 2.8936 2.45601 2.6748 2.6748C2.45601 2.8936 2.33301 3.19058 2.33301 3.5V38.5C2.33301 38.8094 2.45601 39.1064 2.6748 39.3252C2.8936 39.544 3.19058 39.667 3.5 39.667H29.167C29.4761 39.6669 29.7725 39.5437 29.9912 39.3252C30.21 39.1064 30.333 38.8094 30.333 38.5V14.4717C30.3329 14.32 30.3023 14.1713 30.2461 14.0332H19.833C19.557 14.0331 19.3331 13.8092 19.333 13.5332V2.56641C19.333 2.49568 19.3475 2.42816 19.374 2.36719C19.284 2.34538 19.1917 2.33293 19.0986 2.33301H3.5ZM20.333 13.0332H29.4297L20.333 3.11816V13.0332Z" fill="white"/>
</svg>
