<svg width="48" height="41" viewBox="0 0 48 41" fill="none" xmlns="http://www.w3.org/2000/svg">
<path d="M28.2422 34.3691V35.6309C28.2422 37.0258 29.3718 38.1541 30.7637 38.1543H32.8428V40.6748H15.126V38.1543H17.2061C18.599 38.1543 19.7275 37.0258 19.7275 35.6309V34.3691H28.2422Z" fill="#241F20"/>
<path fill-rule="evenodd" clip-rule="evenodd" d="M47.9688 0V30.5264C47.9687 30.5921 47.9542 30.6569 47.9492 30.7207V33.1104H0V2.58398C2.31271e-06 2.51699 0.0145316 2.45367 0.0195312 2.38867V0H47.9688ZM23.9854 29.0479C23.2895 29.0479 22.7239 29.6118 22.7236 30.3096C22.7236 31.0076 23.2894 31.5723 23.9854 31.5723C24.6822 31.5721 25.2471 31.0075 25.2471 30.3096C25.2468 29.6119 24.682 29.048 23.9854 29.0479ZM2.60547 2.34375V27.748H45.3848V2.34375H2.60547Z" fill="#241F20"/>
</svg>
