<svg width="44" height="44" viewBox="0 0 44 44" fill="none" xmlns="http://www.w3.org/2000/svg">
<path d="M41.9048 10.4762V26.1905H37.7143V12.5714L27.2381 5.2381L16.7619 12.5714V15.7143H12.5714V10.4762L27.2381 0L41.9048 10.4762ZM30.381 11.5238H28.2857V13.619H30.381V11.5238ZM26.1905 11.5238H24.0952V13.619H26.1905V11.5238ZM30.381 15.7143H28.2857V17.8095H30.381V15.7143ZM26.1905 15.7143H24.0952V17.8095H26.1905V15.7143ZM37.7143 30.381H33.5238C33.5238 27.8667 31.9524 25.6038 29.6057 24.7238L16.699 19.9048H0V42.9524H12.5714V39.9352L27.2381 44L44 38.7619V36.6667C44 33.1886 41.1924 30.381 37.7143 30.381ZM4.19048 38.7619V24.0952H8.38095V38.7619H4.19048ZM27.1752 39.621L12.5714 35.5771V24.0952H15.9448L28.139 28.6419C28.8514 28.9143 29.3333 29.6057 29.3333 30.381C29.3333 30.381 25.1638 30.2762 24.5143 30.0667L19.5276 28.4114L18.2076 32.3924L23.1943 34.0476C24.2629 34.4038 25.3733 34.5924 26.5048 34.5924H37.7143C38.5314 34.5924 39.2648 35.0743 39.6 35.7657L27.1752 39.621Z" fill="black"/>
</svg>
