<svg width="72" height="72" viewBox="0 0 72 72" fill="none" xmlns="http://www.w3.org/2000/svg">
<path d="M61.5044 0H10.4956C4.69905 0 0 4.69905 0 10.4956V61.5044C0 67.3009 4.69905 72 10.4956 72H61.5044C67.3009 72 72 67.3009 72 61.5044V10.4956C72 4.69905 67.3009 0 61.5044 0Z" fill="#525967"/>
<path d="M61.5044 3.14869C63.4529 3.14869 65.3216 3.92274 66.6994 5.30056C68.0773 6.67838 68.8513 8.5471 68.8513 10.4956V61.5044C68.8513 63.4529 68.0773 65.3216 66.6994 66.6994C65.3216 68.0773 63.4529 68.8513 61.5044 68.8513H10.4956C8.5471 68.8513 6.67838 68.0773 5.30056 66.6994C3.92274 65.3216 3.14869 63.4529 3.14869 61.5044V10.4956C3.14869 8.5471 3.92274 6.67838 5.30056 5.30056C6.67838 3.92274 8.5471 3.14869 10.4956 3.14869H61.5044ZM61.5044 0H10.4956C7.71201 0 5.04241 1.10579 3.0741 3.0741C1.10579 5.04241 0 7.71201 0 10.4956V61.5044C0 64.288 1.10579 66.9576 3.0741 68.9259C5.04241 70.8942 7.71201 72 10.4956 72H61.5044C64.288 72 66.9576 70.8942 68.9259 68.9259C70.8942 66.9576 72 64.288 72 61.5044V10.4956C72 7.71201 70.8942 5.04241 68.9259 3.0741C66.9576 1.10579 64.288 0 61.5044 0Z" fill="#454B57"/>
<path d="M27.0262 62.9209C28.2047 62.9209 29.3716 62.6888 30.4603 62.2378C31.5491 61.7868 32.5383 61.1258 33.3716 60.2925C34.2049 59.4593 34.8659 58.47 35.3169 57.3813C35.7679 56.2925 36 55.1256 36 53.9471V44.9734H27.0262C24.6462 44.9734 22.3637 45.9188 20.6808 47.6017C18.9979 49.2846 18.0525 51.5672 18.0525 53.9471C18.0525 56.3271 18.9979 58.6096 20.6808 60.2925C22.3637 61.9755 24.6462 62.9209 27.0262 62.9209Z" fill="#0ACF83"/>
<path d="M18.0525 36.0001C18.0525 33.6201 18.9979 31.3376 20.6808 29.6546C22.3637 27.9717 24.6462 27.0263 27.0262 27.0263H36V44.9734H27.0262C24.6462 44.9734 22.3637 44.0284 20.6808 42.3455C18.9979 40.6626 18.0525 38.38 18.0525 36.0001Z" fill="#A259FF"/>
<path d="M18.0525 18.0523C18.0525 15.6723 18.9979 13.3898 20.6808 11.7069C22.3637 10.024 24.6462 9.07853 27.0262 9.07853H36V27.0263H27.0262C24.6462 27.0263 22.3637 26.0806 20.6808 24.3977C18.9979 22.7148 18.0525 20.4323 18.0525 18.0523Z" fill="#F24E1E"/>
<path d="M35.9999 9.13103H44.9737C47.3536 9.13103 49.6362 10.0765 51.3191 11.7594C53.002 13.4423 53.9474 15.7248 53.9474 18.1048C53.9474 20.4848 53.002 22.7673 51.3191 24.4502C49.6362 26.1331 47.3536 27.0785 44.9737 27.0785H35.9999V9.13103Z" fill="#FF7262"/>
<path d="M53.9474 36.0001C53.9474 37.7749 53.4211 39.5099 52.4351 40.9856C51.449 42.4613 50.0475 43.6115 48.4078 44.2907C46.768 44.9699 44.9637 45.1476 43.223 44.8014C41.4822 44.4551 39.8833 43.6005 38.6283 42.3455C37.3733 41.0905 36.5186 39.4915 36.1723 37.7508C35.8261 36.01 36.0038 34.2057 36.683 32.5659C37.3622 30.9262 38.5124 29.5247 39.9881 28.5386C41.4638 27.5526 43.1988 27.0263 44.9737 27.0263C47.3537 27.0263 49.6362 27.9717 51.3191 29.6546C53.002 31.3376 53.9474 33.6201 53.9474 36.0001Z" fill="#1ABCFE"/>
</svg>
