<svg width="72" height="72" viewBox="0 0 72 72" fill="none" xmlns="http://www.w3.org/2000/svg">
<path d="M72 63C72 67.95 67.95 72 63 72H9C4.05 72 0 67.95 0 63V9C0 4.05 4.05 0 9 0H63C67.95 0 72 4.05 72 9V63Z" fill="url(#paint0_linear_420_79)"/>
<path fill-rule="evenodd" clip-rule="evenodd" d="M36 22.5C43.4436 22.5 49.5 28.5559 49.5 36C49.5 43.4436 43.4436 49.5 36 49.5C28.5559 49.5 22.5 43.4436 22.5 36C22.5 28.5559 28.5559 22.5 36 22.5ZM36 27C31.0376 27 27 31.0376 27 36C27 40.9624 31.0376 45 36 45C40.9624 45 45 40.9624 45 36C45 31.0376 40.9624 27 36 27Z" fill="white"/>
<path d="M50.3438 18.5625C52.0524 18.5625 53.4375 19.9476 53.4375 21.6562C53.4375 23.3649 52.0524 24.75 50.3438 24.75C48.6351 24.75 47.25 23.3649 47.25 21.6562C47.25 19.9476 48.6351 18.5625 50.3438 18.5625Z" fill="white"/>
<path fill-rule="evenodd" clip-rule="evenodd" d="M48.375 9C56.4396 9 63 15.561 63 23.625V48.375C63 56.4396 56.4396 63 48.375 63H23.625C15.561 63 9.00002 56.4396 9.00002 48.375V23.625C9.00002 15.561 15.561 9 23.625 9H48.375ZM23.625 13.5C18.0422 13.5 13.5 18.0422 13.5 23.625V48.375C13.5 53.9578 18.0422 58.5 23.625 58.5H48.375C53.9578 58.5 58.5 53.9578 58.5 48.375V23.625C58.5 18.0422 53.9578 13.5 48.375 13.5H23.625Z" fill="white"/>
<defs>
<linearGradient id="paint0_linear_420_79" x1="9.27439" y1="74.1682" x2="62.7256" y2="-2.1681" gradientUnits="userSpaceOnUse">
<stop stop-color="#FFB900"/>
<stop offset="1" stop-color="#9100EB"/>
</linearGradient>
</defs>
</svg>
