<svg width="44" height="48" viewBox="0 0 44 48" fill="none" xmlns="http://www.w3.org/2000/svg">
<path fill-rule="evenodd" clip-rule="evenodd" d="M28.8711 33.2568L28.2139 33.75V39.2666C28.2139 39.273 28.2148 39.2797 28.2148 39.2861V42.4287C28.2146 44.9931 26.1366 47.0718 23.5723 47.0723H20.4287C17.8641 47.0721 15.7864 44.9933 15.7861 42.4287V33.75L15.1289 33.2568L16.9287 30.8574L18.1855 31.7998C18.5633 32.0831 18.7861 32.5279 18.7861 33V37.7861H25.2139V33C25.2139 32.5279 25.4367 32.0831 25.8145 31.7998L27.0713 30.8574L28.8711 33.2568ZM18.7861 42.4287C18.7864 43.3364 19.521 44.0721 20.4287 44.0723H23.5723C24.4797 44.0718 25.2146 43.3362 25.2148 42.4287V40.7861H18.7861V42.4287Z" fill="black"/>
<path d="M22 9.5C28.9036 9.5 34.5 15.0964 34.5 22C34.5 26.429 32.4131 30.5993 28.8711 33.2568L27.0713 30.8574C29.8588 28.7661 31.5 25.4845 31.5 22C31.5 16.7533 27.2467 12.5 22 12.5C16.7533 12.5 12.5 16.7533 12.5 22C12.5 25.4845 14.1412 28.7661 16.9287 30.8574L15.1289 33.2568C11.5869 30.5993 9.5 26.429 9.5 22C9.5 15.0964 15.0964 9.5 22 9.5Z" fill="black"/>
<path d="M6.28613 23.5H0V20.5H6.28613V23.5Z" fill="black"/>
<path d="M44.001 23.5H37.7148V20.5H44.001V23.5Z" fill="black"/>
<path d="M11.9502 9.82812L9.8291 11.9492L5.38379 7.50391L7.50488 5.38281L11.9502 9.82812Z" fill="black"/>
<path d="M38.6162 7.50391L34.1709 11.9492L32.0498 9.82812L36.4951 5.38281L38.6162 7.50391Z" fill="black"/>
<path d="M23.5 6.28613H20.5V0H23.5V6.28613Z" fill="black"/>
</svg>
