<svg width="166" height="28" viewBox="0 0 166 28" fill="none" xmlns="http://www.w3.org/2000/svg">
<path fill-rule="evenodd" clip-rule="evenodd" d="M40.5123 20.5468L40.5484 20.4581C40.5484 20.4581 40.4968 20.488 40.3979 20.5414L40.5123 20.5468ZM26.7169 23.4135C26.7169 23.4135 25.0609 23.1349 25.0609 21.6287L25.1572 21.095L27.4808 20.5468L44.0516 16.6423C44.0516 16.6423 48.0854 7.84444 32.6935 8.05591C17.3034 8.26774 15.2883 18.019 15.0751 20.0344C15.0595 20.187 15.0491 20.3595 15.0476 20.5454L15.2883 21.0683C15.2761 23.3175 16.4481 27.1423 26.7486 27.2405C26.7486 27.2405 35.8745 26.9265 38.5308 25.4412L40.5127 20.5468H40.3983C39.2966 21.1419 32.3467 24.7509 26.7169 23.4135ZM26.57 15.0599C26.57 15.0599 27.2419 11.0319 31.7841 10.967C36.3281 10.9017 35.3444 14.7828 35.3444 14.7828L25.3892 19.7937L26.57 15.0599ZM7.64236 0L0 26.6054H10.7234C13.27 17.7371 15.8181 8.86893 18.365 0H7.64236ZM128.036 8.73903L119.842 20.5472L119.411 21.1697L119.335 20.5472L117.885 8.73903H107.946L109.377 20.5472L110.112 26.6054H126.2L130.332 20.5472L138.384 8.73903H128.036ZM92.7931 8.1501C76.9829 8.73903 75.9173 18.4026 75.9173 18.4026C75.9173 18.4026 75.5453 19.3152 75.5518 20.5468C75.5702 23.276 77.4315 27.5689 89.1682 27.1636C98.5507 26.8392 102.995 23.4929 105.095 20.5439C106.816 18.129 106.963 15.9779 106.963 15.9779C106.963 15.9779 108.602 7.56081 92.7931 8.1501ZM95.8265 15.9779C95.8265 15.9779 95.6403 18.4062 94.5198 20.5468C93.6202 22.2667 92.1186 23.7975 89.6276 23.7415C89.6276 23.7415 86.7988 23.9624 86.7959 20.5537C86.7959 19.9247 86.8922 19.1712 87.1192 18.272L88.1841 15.1256C88.1841 15.1256 89.0365 11.3762 92.7927 11.4412C96.5486 11.5076 96.0888 14.4057 95.8265 15.9779ZM72.1618 9.19876C72.1618 9.19876 67.1595 7.82279 60.2389 8.21433C53.3186 8.60731 48.382 9.52534 48.382 9.52534L45.1115 20.5468L43.3144 26.605H54.3189L56.1413 20.5468L58.8611 11.5072C58.8611 11.5072 65.3729 10.5733 64.5205 13.9315L62.5942 20.5468L60.8296 26.605H71.6364L73.4458 20.5468L75.4583 13.8009C75.4583 13.8009 76.7704 10.1154 72.1618 9.19876ZM151.782 8.1501C135.973 8.73903 134.906 18.4026 134.906 18.4026C134.906 18.4026 134.534 19.3152 134.542 20.5468C134.558 23.276 136.42 27.5689 148.157 27.1636C157.541 26.8392 161.984 23.4929 164.084 20.5439C165.805 18.129 165.952 15.9779 165.952 15.9779C165.952 15.9779 167.592 7.56081 151.782 8.1501ZM154.816 15.9779C154.816 15.9779 154.631 18.4062 153.509 20.5468C152.609 22.2667 151.108 23.7975 148.618 23.7415C148.618 23.7415 145.788 23.9624 145.785 20.5537C145.785 19.9247 145.883 19.1712 146.11 18.272L147.174 15.1256C147.174 15.1256 148.026 11.3762 151.782 11.4412C155.538 11.5076 155.08 14.4057 154.816 15.9779Z" fill="#00387D"/>
</svg>
