<svg width="30" height="25" viewBox="0 0 30 25" fill="none" xmlns="http://www.w3.org/2000/svg">
<path d="M23.1738 10.5824C23.5742 11.2642 23.8721 11.9744 24.0674 12.7131C24.2627 13.4517 24.3652 14.214 24.375 15V16.4631L15 21.0227L5.625 16.4631C5.625 15.8949 5.62988 15.3646 5.63965 14.8722C5.64941 14.3797 5.69336 13.9015 5.77148 13.4375C5.84961 12.9735 5.9668 12.5095 6.12305 12.0455C6.2793 11.5814 6.51367 11.0938 6.82617 10.5824L3.75 9.09091V17.429C4.0332 17.5237 4.28711 17.6562 4.51172 17.8267C4.73633 17.9972 4.93652 18.196 5.1123 18.4233C5.28809 18.6506 5.41504 18.8968 5.49316 19.1619C5.57129 19.4271 5.61523 19.7064 5.625 20V24.5455H0V20C0 19.7159 0.0439453 19.4413 0.131836 19.1761C0.219727 18.911 0.34668 18.66 0.512695 18.4233C0.678711 18.1866 0.874023 17.9877 1.09863 17.8267C1.32324 17.6657 1.58203 17.5331 1.875 17.429V8.18182L0 7.27273L15 0L30 7.27273L23.1738 10.5824ZM3.75 20C3.75 19.7538 3.65723 19.5407 3.47168 19.3608C3.28613 19.1809 3.06641 19.0909 2.8125 19.0909C2.55859 19.0909 2.33887 19.1809 2.15332 19.3608C1.96777 19.5407 1.875 19.7538 1.875 20V22.7273H3.75V20ZM4.18945 7.27273L15 12.5142L25.8105 7.27273L15 2.03125L4.18945 7.27273ZM22.5 15.3409C22.5 14.6117 22.4268 13.9347 22.2803 13.3097C22.1338 12.6847 21.875 12.0455 21.5039 11.392L15 14.5455L8.49609 11.392C8.17383 11.9413 7.92969 12.5189 7.76367 13.125C7.59766 13.7311 7.50977 14.3561 7.5 15V15.3409L15 18.9773L22.5 15.3409Z" fill="black"/>
</svg>
