<svg width="154" height="180" viewBox="0 0 154 180" fill="none" xmlns="http://www.w3.org/2000/svg">
<path d="M0 7.99998C0 12.4183 3.58172 16 8 16C12.4183 16 16 12.4183 16 7.99998C16 3.5817 12.4183 -1.7643e-05 8 -1.7643e-05C3.58172 -1.7643e-05 0 3.5817 0 7.99998ZM120.5 171.5C120.5 175.918 124.082 179.5 128.5 179.5C132.918 179.5 136.5 175.918 136.5 171.5C136.5 167.082 132.918 163.5 128.5 163.5C124.082 163.5 120.5 167.082 120.5 171.5ZM8.24326 9.48012C26.1327 6.53996 47.2984 5.33991 67.7782 7.65766C88.2726 9.97705 107.963 15.8056 123.014 26.8229C138.012 37.8011 148.482 53.9841 150.534 77.2583C152.592 100.602 146.186 131.179 127.148 170.851L129.852 172.149C149.014 132.221 155.646 101.082 153.522 76.9948C151.393 52.8388 140.463 35.878 124.786 24.4021C109.162 12.9652 88.9024 7.02917 68.1156 4.67669C47.3141 2.32255 25.8673 3.54334 7.75674 6.51984L8.24326 9.48012Z" fill="#20C6B1"/>
</svg>
