<svg width="152" height="166" viewBox="0 0 152 166" fill="none" xmlns="http://www.w3.org/2000/svg">
<path d="M0 157.831C0 162.249 3.58172 165.831 8 165.831C12.4183 165.831 16 162.249 16 157.831C16 153.413 12.4183 149.831 8 149.831C3.58172 149.831 0 153.413 0 157.831ZM124.251 1.66225C132.886 14.6348 140.917 30.838 145.36 47.8201C149.804 64.8077 150.632 82.4737 144.998 98.4575C133.799 130.227 96.6191 156.331 8 156.331V159.331C96.9809 159.331 135.967 133.102 147.827 99.4548C153.722 82.7302 152.803 64.417 148.262 47.0609C143.72 29.6992 135.531 13.1941 126.749 -1.66297e-05L124.251 1.66225Z" fill="#20C6B1"/>
</svg>
