<svg width="72" height="72" viewBox="0 0 72 72" fill="none" xmlns="http://www.w3.org/2000/svg">
<path d="M72 67.5C72 69.984 69.984 72 67.5 72H4.5C2.016 72 0 69.984 0 67.5V4.5C0 2.016 2.016 0 4.5 0H67.5C69.984 0 72 2.016 72 4.5V67.5Z" fill="#007BB5"/>
<path d="M24.75 56.25H15.75V24.75H24.75V56.25Z" fill="white"/>
<path d="M38.25 29.25C38.763 27.0405 39.8433 24.75 46.123 24.75C55.0778 24.7501 56.25 31.5001 56.25 40.5V56.25H47.25V38.25C47.25 35.298 45.5985 33.75 42.75 33.75C39.8317 33.75 38.25 35.3317 38.25 38.25V56.25H29.25V24.75H38.25V29.25Z" fill="white"/>
<path d="M20.25 13.5C22.7353 13.5 24.75 15.5147 24.75 18C24.75 20.4853 22.7353 22.5 20.25 22.5C17.7647 22.5 15.75 20.4853 15.75 18C15.75 15.5147 17.7647 13.5 20.25 13.5Z" fill="white"/>
</svg>
