<svg width="152" height="33" viewBox="0 0 152 33" fill="none" xmlns="http://www.w3.org/2000/svg">
<path d="M152 14.6802V12.0068H148.68V7.85118L145.389 8.85818V12.0068H140.468V10.2529C140.468 9.4362 140.651 8.81098 141.011 8.39446C141.368 7.9824 141.88 7.7731 142.531 7.7731C143.001 7.7731 143.486 7.88354 143.974 8.10115L144.097 8.15578V5.34081L144.039 5.32003C143.583 5.15585 142.963 5.07362 142.195 5.07362C141.227 5.07362 140.347 5.2841 139.58 5.70181C138.824 6.10848 138.201 6.72442 137.785 7.47593C137.364 8.23415 137.15 9.10964 137.15 10.0786V12.0071H134.839V14.6805H137.15V25.9419H140.468V14.6802H145.389V21.8367C145.389 24.784 146.779 26.2779 149.521 26.2779C149.995 26.2752 150.467 26.2226 150.93 26.1212C151.423 26.0152 151.759 25.9092 151.956 25.7961L152 25.7703V23.0723L151.865 23.1616C151.685 23.2819 151.461 23.3798 151.198 23.4526C150.934 23.5268 150.713 23.5642 150.542 23.5642C149.9 23.5642 149.425 23.3911 149.13 23.0494C148.832 22.705 148.68 22.1021 148.68 21.2589V14.6802H152ZM127.428 23.5645C126.224 23.5645 125.274 23.1649 124.605 22.3785C123.932 21.5876 123.591 20.4607 123.591 19.0282C123.591 17.5507 123.932 16.3944 124.606 15.5895C125.275 14.7903 126.216 14.3845 127.401 14.3845C128.552 14.3845 129.467 14.7719 130.124 15.537C130.783 16.3056 131.118 17.4527 131.118 18.9475C131.118 20.4607 130.803 21.6232 130.182 22.4007C129.566 23.1726 128.64 23.5645 127.428 23.5645ZM127.576 11.6711C125.278 11.6711 123.453 12.3444 122.152 13.6723C120.852 15.0005 120.192 16.8382 120.192 19.1354C120.192 21.3171 120.836 23.072 122.105 24.3506C123.375 25.6295 125.103 26.2773 127.24 26.2773C129.467 26.2773 131.256 25.5948 132.557 24.2485C133.857 22.9036 134.516 21.0832 134.516 18.8394C134.516 16.6238 133.898 14.8559 132.678 13.5859C131.457 12.3153 129.74 11.6711 127.576 11.6711ZM114.842 11.6711C113.279 11.6711 111.986 12.071 110.998 12.8592C110.005 13.6521 109.501 14.6924 109.501 15.9508C109.501 16.6048 109.61 17.1858 109.824 17.6786C110.039 18.1732 110.372 18.6084 110.815 18.9739C111.255 19.3364 111.933 19.7161 112.832 20.102C113.588 20.4131 114.152 20.6765 114.51 20.8837C114.86 21.0871 115.108 21.2913 115.248 21.4902C115.385 21.6847 115.454 21.9513 115.454 22.2799C115.454 23.2162 114.753 23.6717 113.31 23.6717C112.775 23.6717 112.165 23.56 111.496 23.3397C110.832 23.1227 110.206 22.805 109.639 22.3978L109.501 22.2992V25.4936L109.551 25.5173C110.021 25.734 110.613 25.9166 111.311 26.0606C112.007 26.2043 112.639 26.2776 113.189 26.2776C114.885 26.2776 116.251 25.8759 117.248 25.083C118.251 24.2844 118.759 23.2201 118.759 21.9177C118.759 20.9787 118.485 20.173 117.946 19.5234C117.41 18.8792 116.481 18.2875 115.184 17.7647C114.151 17.35 113.489 17.0059 113.216 16.7417C112.953 16.4864 112.819 16.1254 112.819 15.6685C112.819 15.263 112.984 14.9385 113.323 14.6754C113.664 14.4112 114.139 14.2767 114.735 14.2767C115.288 14.2767 115.853 14.364 116.416 14.535C116.978 14.7063 117.472 14.9358 117.884 15.2161L118.019 15.3087V12.2782L117.967 12.2559C117.587 12.0926 117.086 11.9531 116.477 11.8403C115.87 11.7281 115.32 11.6711 114.842 11.6711ZM100.85 23.5645C99.6461 23.5645 98.6964 23.1649 98.0272 22.3785C97.3539 21.5876 97.0134 20.4607 97.0134 19.0282C97.0134 17.5507 97.3542 16.3944 98.0281 15.5895C98.697 14.7903 99.6372 14.3845 100.823 14.3845C101.974 14.3845 102.89 14.7719 103.546 15.537C104.205 16.3056 104.54 17.4527 104.54 18.9475C104.54 20.4607 104.225 21.6232 103.605 22.4007C102.988 23.1726 102.062 23.5645 100.85 23.5645ZM100.998 11.6711C98.6999 11.6711 96.8748 12.3444 95.5744 13.6723C94.2741 15.0005 93.6142 16.8382 93.6142 19.1354C93.6142 21.318 94.2584 23.072 95.5275 24.3506C96.797 25.6295 98.5245 26.2773 100.662 26.2773C102.889 26.2773 104.678 25.5948 105.979 24.2485C107.279 22.9036 107.939 21.0832 107.939 18.8394C107.939 16.6238 107.32 14.8559 106.1 13.5859C104.879 12.3153 103.162 11.6711 100.998 11.6711ZM88.5771 14.4201V12.0068H85.2993V25.9413H88.5768V18.813C88.5768 17.6009 88.8517 16.6051 89.3941 15.8532C89.9294 15.1101 90.6431 14.7333 91.5138 14.7333C91.8092 14.7333 92.1405 14.782 92.4994 14.8785C92.8548 14.9741 93.1122 15.078 93.2639 15.1873L93.4016 15.2873V11.9831L93.3482 11.9602C93.0433 11.8305 92.6113 11.7652 92.0651 11.7652C91.2413 11.7652 90.5041 12.0297 89.873 12.5507C89.3187 13.0088 88.9179 13.637 88.6118 14.4201H88.5771ZM79.4295 11.6711C77.9258 11.6711 76.5842 11.9938 75.4434 12.6294C74.3004 13.2662 73.416 14.1761 72.8145 15.3324C72.2157 16.4864 71.9117 17.8342 71.9117 19.3373C71.9117 20.6536 72.2065 21.8619 72.789 22.9265C73.3721 23.9932 74.1974 24.8277 75.2418 25.4066C76.285 25.9846 77.4906 26.2776 78.8251 26.2776C80.3828 26.2776 81.7128 25.9662 82.7794 25.3523L82.8222 25.3273V22.3244L82.6847 22.4251C82.1941 22.7806 81.6537 23.0619 81.081 23.2599C80.5015 23.4621 79.9737 23.5642 79.5105 23.5642C78.2242 23.5642 77.1919 23.1619 76.4423 22.3687C75.6912 21.5739 75.3104 20.4586 75.3104 19.0546C75.3104 17.6421 75.7076 16.498 76.4901 15.6534C77.2706 14.8117 78.3049 14.3848 79.5646 14.3848C80.6419 14.3848 81.6917 14.7497 82.6847 15.4702L82.8222 15.5699V12.4058L82.7779 12.3809C82.4039 12.1716 81.8944 11.9988 81.2615 11.8679C80.6315 11.7373 80.0152 11.6711 79.4295 11.6711ZM69.6543 12.0068H66.3762V25.9413H69.6543V12.0068ZM68.0488 6.07082C67.5094 6.07082 67.0388 6.25459 66.6523 6.61826C66.264 6.98342 66.0669 7.44298 66.0669 7.98507C66.0669 8.51885 66.2616 8.96981 66.6458 9.32517C67.0278 9.67934 67.4999 9.85895 68.0488 9.85895C68.5974 9.85895 69.0712 9.67934 69.4578 9.32576C69.8467 8.96981 70.0441 8.51885 70.0441 7.98507C70.0441 7.46198 69.852 7.00687 69.4738 6.6331C69.0959 6.25993 68.6161 6.07082 68.0488 6.07082ZM59.8705 10.9791V25.941H63.2157V6.49743H58.5859L52.7009 20.9395L46.9903 6.49743H42.172V25.9413H45.3156V10.9776H45.4237L51.4541 25.9413H53.8261L59.7624 10.9788L59.8705 10.9791Z" fill="#706D6E"/>
<path d="M15.4194 15.4194H0V0H15.4194V15.4194Z" fill="#F1511B"/>
<path d="M32.4446 15.4194H17.0252V0H32.4446V15.4194Z" fill="#80CC28"/>
<path d="M15.4191 32.4505H0V17.0311H15.4191V32.4505Z" fill="#00ADEF"/>
<path d="M32.4446 32.4505H17.0252V17.0311H32.4446V32.4505Z" fill="#FBBC09"/>
</svg>
