<svg width="7" height="7" viewBox="0 0 7 7" fill="none" xmlns="http://www.w3.org/2000/svg">
<path d="M3.02407 6.04801C2.65607 6.04801 2.47207 5.86001 2.47207 5.48401V3.51601H0.540072C0.180072 3.51601 7.22706e-05 3.34001 7.22706e-05 2.98801C7.22706e-05 2.63601 0.180072 2.46001 0.540072 2.46001H2.47207V0.552007C2.47207 0.184007 2.65607 6.67572e-06 3.02407 6.67572e-06C3.39207 6.67572e-06 3.57607 0.184007 3.57607 0.552007V2.46001H5.50807C5.86807 2.46001 6.04807 2.63601 6.04807 2.98801C6.04807 3.34001 5.86807 3.51601 5.50807 3.51601H3.57607V5.48401C3.57607 5.86001 3.39207 6.04801 3.02407 6.04801Z" fill="black"/>
</svg>
