<svg width="42" height="43" viewBox="0 0 42 43" fill="none" xmlns="http://www.w3.org/2000/svg">
<path d="M29.293 17.5967V21.7812H23.0156V17.5967H29.293Z" fill="black"/>
<path fill-rule="evenodd" clip-rule="evenodd" d="M41.8467 7.92969V21.7812H35.5703V42.7051H6.27734V21.7812H0V7.92969L15.8604 0L17.3877 4.60352C17.6277 5.34957 18.0982 6.00024 18.7314 6.46191C19.365 6.92368 20.1291 7.17285 20.9131 7.17285C21.6971 7.17285 22.4612 6.92368 23.0947 6.46191C23.728 6.00024 24.1984 5.34957 24.4385 4.60352L25.9873 0L41.8467 7.92969ZM28.4141 5.90039C27.8939 7.47628 26.8898 8.84801 25.5449 9.82031C24.2002 10.7925 22.5832 11.3164 20.9238 11.3164C19.2643 11.3164 17.6466 10.7926 16.3018 9.82031C14.957 8.84801 13.9528 7.47623 13.4326 5.90039L4.18457 10.5244V17.5967H10.4619V38.5205H31.3857V17.5967H37.6621V10.5244L28.4141 5.9209V5.90039Z" fill="black"/>
</svg>
