<svg width="72" height="72" viewBox="0 0 72 72" fill="none" xmlns="http://www.w3.org/2000/svg">
<path d="M63 0H9C4.02944 0 0 4.02944 0 9V63C0 67.9706 4.02944 72 9 72H63C67.9706 72 72 67.9706 72 63V9C72 4.02944 67.9706 0 63 0Z" fill="#64A9DC"/>
<path d="M59.7799 13.2466L11.0747 32.0323C7.75052 33.366 7.77024 35.2201 10.4688 36.0469L22.616 39.8383L27.2638 54.0881C27.8289 55.6477 27.5503 56.2663 29.1881 56.2663C30.452 56.2663 31.0127 55.69 31.7167 55.0024C32.1643 54.5643 34.8222 51.9802 37.7899 49.0948L50.4253 58.4304C52.7504 59.7131 54.4292 59.0486 55.0082 56.271L63.3023 17.1858C64.1515 13.7813 62.0044 12.237 59.7799 13.2466ZM24.5224 38.9672L51.9023 21.693C53.2691 20.8641 54.5224 21.3098 53.4934 22.2232L30.0491 43.3759L29.1362 53.1121L24.5224 38.9672Z" fill="white"/>
</svg>
