<svg width="30" height="30" viewBox="0 0 30 30" fill="none" xmlns="http://www.w3.org/2000/svg">
<path d="M26.25 30H3.75C1.68 30 0 28.32 0 26.25V3.75C0 1.68 1.68 0 3.75 0H26.25C28.32 0 30 1.68 30 3.75V26.25C30 28.32 28.32 30 26.25 30Z" fill="#1DA1F2"/>
<path d="M11.52 22.62C18.5925 22.62 22.4625 16.755 22.4625 11.6775C22.4625 11.5125 22.4625 11.3475 22.455 11.1825C23.205 10.6425 23.8575 9.96 24.375 9.1875C23.685 9.495 22.9425 9.6975 22.1625 9.795C22.9575 9.3225 23.565 8.56499 23.8575 7.66499C23.115 8.10749 22.29 8.4225 21.4125 8.595C20.7075 7.845 19.71 7.38 18.6075 7.38C16.485 7.38 14.76 9.105 14.76 11.2275C14.76 11.5275 14.7975 11.82 14.8575 12.105C11.6625 11.9475 8.82751 10.41 6.93001 8.085C6.60001 8.655 6.41251 9.31499 6.41251 10.02C6.41251 11.355 7.09501 12.5325 8.12251 13.2225C7.49251 13.2 6.90001 13.0275 6.38251 12.7425V12.795C6.38251 14.655 7.71001 16.215 9.46501 16.5675C9.14251 16.6575 8.80501 16.7025 8.45251 16.7025C8.20501 16.7025 7.96501 16.68 7.73251 16.635C8.22001 18.165 9.64501 19.275 11.325 19.305C10.005 20.34 8.34751 20.955 6.54751 20.955C6.24001 20.955 5.93251 20.94 5.63251 20.9025C7.32751 21.9825 9.35251 22.62 11.52 22.62Z" fill="white"/>
</svg>
