<svg width="158" height="36" viewBox="0 0 158 36" fill="none" xmlns="http://www.w3.org/2000/svg">
<path d="M49.3412 5.53311C49.0518 4.46357 48.4872 3.48853 47.7037 2.70508C46.9202 1.92163 45.9451 1.35711 44.8755 1.06774C40.9598 0 25.2017 0 25.2017 0C25.2017 0 9.44297 0.0324025 5.52783 1.10014C4.45833 1.38956 3.48331 1.9541 2.69986 2.73754C1.91641 3.52099 1.35187 4.49601 1.06246 5.56551C-0.121929 12.5228 -0.581427 23.1233 1.09486 29.8019C1.38428 30.8714 1.94882 31.8464 2.73226 32.6299C3.51571 33.4133 4.49073 33.9779 5.56023 34.2673C9.47568 35.335 25.2341 35.335 25.2341 35.335C25.2341 35.335 40.9925 35.335 44.9079 34.2673C45.9774 33.9779 46.9524 33.4133 47.7359 32.6299C48.5193 31.8464 49.0839 30.8714 49.3733 29.8019C50.6222 22.8351 51.0076 12.2407 49.3412 5.53311Z" fill="#FF0000"/>
<path d="M20.186 25.2394L33.2587 17.6677L20.186 10.0958V25.2394Z" fill="white"/>
<path d="M151.593 10.2577C153.308 10.2577 154.602 10.5811 155.508 11.1958C156.414 11.8109 157.062 12.7814 157.45 14.1083C157.838 15.435 158 17.2468 158 19.5766V23.3628H149.684V24.5274L149.814 27.731C149.91 28.4429 150.072 28.9607 150.331 29.2841C150.59 29.6078 151.011 29.7695 151.561 29.7695C152.305 29.7695 152.823 29.4785 153.082 28.8962C153.373 28.3136 153.502 27.3427 153.535 26.0161L157.838 26.275C157.871 26.4691 157.871 26.728 157.871 27.0514C157.871 29.09 157.32 30.6111 156.188 31.614C155.055 32.6169 153.502 33.1348 151.464 33.1348C149.004 33.1348 147.29 32.3583 146.319 30.8376C145.348 29.3165 144.83 26.9218 144.83 23.7186V19.8032C144.94 14.3025 145.908 10.2737 151.593 10.2577ZM91.7629 10.6783V26.8897C91.7629 27.8606 91.8598 28.5725 92.0863 28.9931C92.5458 29.8927 93.7366 29.6628 94.3838 29.2196C94.7574 28.9671 95.0585 28.6214 95.2574 28.2167V10.678H100.208V32.7786H96.3251L95.9045 30.0605H95.8076C94.7399 32.0991 93.154 33.1345 91.0509 33.1345C87.8138 33.1264 87.0216 30.7941 86.8331 28.4253L86.8207 28.2583C86.7974 27.8996 86.7837 27.5402 86.7797 27.1807V10.6783H91.7629ZM117.294 10.6783V26.8897C117.294 27.8606 117.39 28.5725 117.617 28.9931C118.077 29.8927 119.267 29.6628 119.914 29.2196C120.288 28.9671 120.589 28.6214 120.788 28.2167V10.678H125.739V32.7786H121.856L121.435 30.0605H121.338C120.271 32.0991 118.685 33.1345 116.582 33.1345C113.344 33.1264 112.552 30.7941 112.364 28.4253L112.351 28.2583C112.328 27.8996 112.314 27.5402 112.31 27.1807V10.6783H117.294ZM77.3956 10.2577C79.0136 10.2577 80.3402 10.5811 81.3111 11.2606C82.2816 11.9402 83.0259 12.9758 83.4789 14.3994C83.932 15.8232 84.1585 17.7322 84.1585 20.0945V23.2977C84.1585 25.66 83.932 27.5368 83.4789 28.9604C83.0259 30.3846 82.314 31.4199 81.3111 32.0994C80.3081 32.7465 78.9488 33.1024 77.2663 33.1024C75.5187 33.1348 74.1597 32.779 73.1568 32.1318C72.1538 31.4523 71.4416 30.4167 71.0213 28.9931C70.6004 27.5693 70.4062 25.6924 70.4062 23.3304V20.1266C70.4062 17.7643 70.6328 15.8229 71.1182 14.399C71.6036 12.9431 72.3476 11.9074 73.3833 11.2606C74.4186 10.6132 75.7452 10.2577 77.3956 10.2577ZM133.505 1.39146V13.0403H133.537C133.99 12.1991 134.573 11.5195 135.382 11.0017C136.137 10.4937 137.027 10.2233 137.938 10.2253C139.135 10.2253 140.041 10.5487 140.721 11.1634C141.4 11.8109 141.886 12.8138 142.177 14.2052C142.459 15.5532 142.62 17.4174 142.629 19.7683L142.63 19.9976V23.4921C142.63 26.7601 142.209 29.1872 141.432 30.7404C140.624 32.2935 139.394 33.0703 137.711 33.0703C136.773 33.0703 135.932 32.8438 135.155 32.4231C134.469 32.0229 133.899 31.4491 133.504 30.7592L133.44 30.6432H133.343L132.825 32.7465H128.716V1.39177L133.505 1.39146ZM113.701 2.524V6.53605H108.783V32.7786H103.93V6.53635H98.9787V2.52431L113.701 2.524ZM60.3427 2.524L60.3457 2.53635C60.393 2.7465 61.0472 5.65501 61.7668 9.04369L62.0816 10.5385L62.222 11.2156C62.708 13.5621 63.1719 15.9155 63.4493 17.6029H63.5789C63.8446 16.0892 64.2307 14.1522 64.6423 12.1744L64.7503 11.6578C64.8046 11.3992 64.8589 11.1406 64.9139 10.8826L64.9984 10.4824C65.5574 7.86141 66.1332 5.24406 66.7256 2.63047L66.7349 2.58881L66.7497 2.524H71.7005L65.973 22.9422V32.7465H61.087V22.9743H61.0546L55.3919 2.52369L60.3427 2.524ZM77.2984 13.6874C76.6189 13.6874 76.1659 14.0435 75.8749 14.7879C75.5835 15.5319 75.4542 16.6644 75.4542 18.2503V25.1425C75.4542 26.7604 75.5835 27.9575 75.8425 28.6697C76.1014 29.3813 76.5868 29.7374 77.2984 29.7374C77.9779 29.7374 78.4633 29.3813 78.7547 28.6697C79.046 27.9575 79.1753 26.7604 79.1753 25.1425V18.25C79.1753 16.6644 79.0457 15.4995 78.7547 14.7876C78.4633 14.0435 77.9779 13.6874 77.2984 13.6874ZM134.379 14.3349C133.984 14.699 133.704 15.148 133.537 15.7093L133.505 15.8232V28.3781C133.906 29.0576 134.476 29.5106 135.479 29.543C135.997 29.543 136.417 29.3489 136.741 28.9607C137.064 28.5725 137.291 27.9251 137.42 27.019C137.544 26.1494 137.609 24.9514 137.614 23.4258V20.3534C137.614 18.6061 137.549 17.2795 137.452 16.341C137.323 15.4026 137.162 14.7231 136.87 14.3349C136.307 13.5257 135.091 13.5356 134.379 14.3349ZM151.496 13.5905C150.946 13.6229 150.558 13.7846 150.331 14.0759C150.072 14.3994 149.91 14.8848 149.814 15.5967C149.718 16.2941 149.686 18.732 149.684 18.8295V20.4182H153.308V19.0172V19.044C153.306 19.5338 153.296 18.7598 153.274 17.8096L153.27 17.6819C153.25 16.8468 153.22 15.9158 153.179 15.5967C153.082 14.8524 152.92 14.3345 152.661 14.0435C152.402 13.7522 152.014 13.5905 151.496 13.5905Z" fill="#282828"/>
</svg>
